<svg width="145" height="82" viewBox="0 0 145 82" fill="none" xmlns="http://www.w3.org/2000/svg">
<rect width="8.63698" height="42.5928" rx="2.28456" transform="matrix(0.845742 0.533591 -0.511464 0.859305 21.7847 20.3955)" fill="url(#paint0_linear_128_13)"/>
<path d="M30.689 37.2852C31.5617 35.7292 33.8017 35.7291 34.6743 37.2852L46.354 58.1143C47.2079 59.6371 46.1076 61.5155 44.3618 61.5156H34.2319L38.2231 54.8096C38.8683 53.7254 38.5265 52.3011 37.4595 51.6279L34.019 49.457C32.952 48.784 31.5638 49.1171 30.9185 50.2012L24.1841 61.5156H21.0015C19.2556 61.5156 18.1545 59.6371 19.0083 58.1143L30.689 37.2852Z" fill="url(#paint1_linear_128_13)"/>
<path d="M78.9367 34.3956H81.8213V55H78.9367L78.8337 51.1676C78.1606 52.4725 77.2197 53.5302 76.0109 54.3407C74.8021 55.1374 73.3598 55.5357 71.6839 55.5357C70.1729 55.5357 68.7581 55.2541 67.4394 54.6909C66.1208 54.114 64.96 53.3242 63.9573 52.3214C62.9545 51.3187 62.1716 50.158 61.6084 48.8393C61.0452 47.5206 60.7636 46.1058 60.7636 44.5948C60.7636 43.1113 61.0383 41.717 61.5878 40.4121C62.151 39.1071 62.9202 37.9602 63.8955 36.9712C64.8845 35.9821 66.0246 35.2129 67.3158 34.6635C68.6208 34.1003 70.015 33.8187 71.4985 33.8187C73.2155 33.8187 74.7128 34.2308 75.9903 35.0549C77.2677 35.8654 78.2842 36.9299 79.0397 38.2486L78.9367 34.3956ZM71.6221 52.7335C73.0919 52.7335 74.3556 52.3764 75.4133 51.6621C76.471 50.9341 77.2815 49.9588 77.8447 48.7363C78.4216 47.5137 78.71 46.1676 78.71 44.6978C78.71 43.1868 78.4216 41.8269 77.8447 40.6181C77.2677 39.3956 76.4504 38.4272 75.3927 37.7129C74.335 36.9986 73.0782 36.6415 71.6221 36.6415C70.1661 36.6415 68.8337 37.0055 67.6249 37.7335C66.4298 38.4478 65.4751 39.4162 64.7609 40.6387C64.0603 41.8613 63.71 43.2143 63.71 44.6978C63.71 46.1951 64.074 47.5549 64.8021 48.7775C65.5301 49.9863 66.4916 50.9478 67.6867 51.6621C68.8955 52.3764 70.2073 52.7335 71.6221 52.7335ZM100.254 49.8283L102.829 51.2294C101.895 52.5343 100.707 53.5783 99.2645 54.3613C97.836 55.1442 96.2838 55.5357 94.6079 55.5357C92.7123 55.5357 90.9816 55.0481 89.4156 54.0728C87.8634 53.0975 86.6203 51.7926 85.6862 50.158C84.7659 48.5096 84.3057 46.6896 84.3057 44.6978C84.3057 43.1868 84.5736 41.7788 85.1093 40.4739C85.645 39.1552 86.3799 38.0014 87.314 37.0124C88.2618 36.0096 89.3607 35.2266 90.6107 34.6635C91.8607 34.1003 93.1931 33.8187 94.6079 33.8187C96.2838 33.8187 97.836 34.2102 99.2645 34.9931C100.707 35.7761 101.895 36.8269 102.829 38.1456L100.254 39.5261C99.5393 38.6195 98.6807 37.9258 97.678 37.4451C96.6752 36.9505 95.6519 36.7033 94.6079 36.7033C93.2206 36.7033 91.9637 37.0742 90.8373 37.8159C89.711 38.544 88.8181 39.5124 88.1588 40.7212C87.5132 41.9299 87.1904 43.2555 87.1904 44.6978C87.1904 46.1401 87.52 47.4657 88.1794 48.6744C88.8524 49.8832 89.7522 50.8516 90.8785 51.5797C92.0049 52.294 93.248 52.6511 94.6079 52.6511C95.7343 52.6511 96.792 52.3901 97.781 51.8681C98.77 51.3462 99.5942 50.6662 100.254 49.8283ZM115.333 55.5357C113.437 55.5357 111.707 55.0481 110.141 54.0728C108.589 53.0975 107.345 51.7926 106.411 50.158C105.491 48.5096 105.031 46.6896 105.031 44.6978C105.031 43.1868 105.299 41.7788 105.834 40.4739C106.37 39.1552 107.105 38.0014 108.039 37.0124C108.987 36.0096 110.086 35.2266 111.336 34.6635C112.586 34.1003 113.918 33.8187 115.333 33.8187C117.229 33.8187 118.953 34.3063 120.505 35.2816C122.071 36.2569 123.314 37.5687 124.234 39.217C125.168 40.8654 125.635 42.6923 125.635 44.6978C125.635 46.1951 125.367 47.5962 124.832 48.9011C124.296 50.206 123.554 51.3599 122.606 52.3626C121.672 53.3516 120.58 54.1277 119.33 54.6909C118.094 55.2541 116.762 55.5357 115.333 55.5357ZM115.333 52.6511C116.734 52.6511 117.991 52.2871 119.104 51.5591C120.23 50.8173 121.116 49.842 121.762 48.6332C122.421 47.4244 122.751 46.1126 122.751 44.6978C122.751 43.2555 122.421 41.9299 121.762 40.7212C121.102 39.4986 120.209 38.5233 119.083 37.7953C117.97 37.0673 116.72 36.7033 115.333 36.7033C113.932 36.7033 112.668 37.0742 111.542 37.8159C110.429 38.544 109.543 39.5124 108.884 40.7212C108.238 41.9299 107.915 43.2555 107.915 44.6978C107.915 46.1813 108.252 47.5275 108.925 48.7363C109.598 49.9313 110.498 50.886 111.624 51.6003C112.751 52.3008 113.987 52.6511 115.333 52.6511ZM135.532 55.3915C134.406 55.364 133.307 55.158 132.235 54.7734C131.164 54.3887 130.23 53.8668 129.433 53.2074C128.637 52.5481 128.066 51.7995 127.723 50.9615L130.216 49.8901C130.436 50.4258 130.841 50.9203 131.432 51.3736C132.036 51.8132 132.723 52.1703 133.492 52.4451C134.262 52.706 135.024 52.8365 135.779 52.8365C136.617 52.8365 137.4 52.6992 138.128 52.4245C138.856 52.1497 139.447 51.7582 139.9 51.25C140.367 50.728 140.601 50.1168 140.601 49.4162C140.601 48.6607 140.354 48.0701 139.859 47.6442C139.365 47.2047 138.74 46.8613 137.984 46.614C137.229 46.353 136.452 46.1058 135.656 45.8723C134.2 45.4739 132.915 45.0343 131.803 44.5536C130.69 44.0728 129.818 43.4615 129.186 42.7198C128.568 41.9643 128.259 40.9959 128.259 39.8146C128.259 38.5646 128.609 37.4863 129.31 36.5797C130.024 35.6593 130.951 34.9519 132.091 34.4574C133.245 33.9492 134.474 33.6951 135.779 33.6951C137.455 33.6951 138.98 34.0591 140.354 34.7871C141.741 35.5151 142.744 36.4835 143.362 37.6923L141.034 39.0728C140.786 38.5096 140.395 38.022 139.859 37.6099C139.323 37.1978 138.712 36.875 138.025 36.6415C137.352 36.408 136.665 36.2843 135.965 36.2706C135.086 36.2569 134.268 36.3874 133.513 36.6621C132.757 36.9231 132.146 37.3146 131.679 37.8365C131.226 38.3585 130.999 38.9973 130.999 39.7527C130.999 40.5082 131.226 41.0852 131.679 41.4835C132.132 41.8681 132.744 42.1841 133.513 42.4313C134.296 42.6648 135.175 42.9396 136.15 43.2555C137.4 43.6538 138.575 44.1071 139.674 44.6154C140.773 45.1236 141.659 45.7555 142.332 46.511C143.005 47.2665 143.334 48.2212 143.321 49.375C143.321 50.6113 142.95 51.6896 142.208 52.6099C141.466 53.5302 140.505 54.2376 139.323 54.7321C138.142 55.2129 136.878 55.4327 135.532 55.3915Z" fill="white"/>
<defs>
<linearGradient id="paint0_linear_128_13" x1="4.31849" y1="0" x2="4.31849" y2="42.5928" gradientUnits="userSpaceOnUse">
<stop stop-color="#CF0A0A"/>
<stop offset="1" stop-color="#690505"/>
</linearGradient>
<linearGradient id="paint1_linear_128_13" x1="32.6814" y1="36.1182" x2="32.6814" y2="61.5157" gradientUnits="userSpaceOnUse">
<stop stop-color="#CF0A0A"/>
<stop offset="1" stop-color="#690505"/>
</linearGradient>
</defs>
</svg>
