<svg width="890" height="393" viewBox="0 0 890 393" fill="none" xmlns="http://www.w3.org/2000/svg">
<path d="M275.295 95.3296L261.779 86.5255C257.518 83.75 251.819 84.958 249.051 89.2236L167.469 214.921C164.701 219.187 165.911 224.895 170.172 227.67L183.689 236.474C187.95 239.25 193.648 238.042 196.417 233.776L277.998 108.079C280.767 103.813 279.557 98.1051 275.295 95.3296Z" fill="url(#paint0_linear_231_37)"/>
<path d="M279.387 149.241C281.087 146.614 284.931 146.614 286.632 149.241L341.991 234.734C343.851 237.605 341.789 241.396 338.368 241.396H310.512C308.658 241.396 306.931 240.456 305.923 238.9L288.892 212.593C286.737 209.266 281.868 209.266 279.714 212.593L262.682 238.9C261.675 240.456 259.947 241.396 258.093 241.396H227.663C224.243 241.396 222.182 237.606 224.041 234.735L279.387 149.241Z" fill="url(#paint1_linear_231_37)"/>
<path d="M468.74 137.268H480.043V218H468.74L468.337 202.984C465.699 208.097 462.013 212.241 457.276 215.417C452.54 218.538 446.889 220.099 440.323 220.099C434.402 220.099 428.859 218.996 423.692 216.789C418.525 214.529 413.977 211.434 410.048 207.505C406.119 203.576 403.051 199.028 400.845 193.861C398.638 188.694 397.535 183.151 397.535 177.23C397.535 171.418 398.611 165.955 400.764 160.842C402.971 155.729 405.985 151.235 409.806 147.36C413.681 143.485 418.148 140.471 423.208 138.318C428.321 136.111 433.783 135.008 439.596 135.008C446.324 135.008 452.19 136.622 457.196 139.852C462.201 143.027 466.184 147.198 469.144 152.365L468.74 137.268ZM440.08 209.12C445.839 209.12 450.791 207.72 454.935 204.921C459.079 202.069 462.255 198.248 464.461 193.458C466.722 188.667 467.852 183.393 467.852 177.634C467.852 171.714 466.722 166.385 464.461 161.649C462.201 156.859 458.999 153.065 454.854 150.266C450.71 147.467 445.786 146.068 440.08 146.068C434.375 146.068 429.155 147.494 424.419 150.347C419.736 153.145 415.995 156.94 413.197 161.73C410.452 166.52 409.079 171.821 409.079 177.634C409.079 183.501 410.506 188.829 413.358 193.619C416.211 198.355 419.978 202.123 424.661 204.921C429.397 207.72 434.537 209.12 440.08 209.12ZM552.264 197.736L562.355 203.226C558.695 208.339 554.04 212.43 548.388 215.497C542.791 218.565 536.709 220.099 530.143 220.099C522.716 220.099 515.934 218.188 509.799 214.367C503.717 210.546 498.846 205.433 495.186 199.028C491.58 192.569 489.777 185.438 489.777 177.634C489.777 171.714 490.827 166.197 492.926 161.084C495.025 155.917 497.904 151.396 501.564 147.521C505.278 143.592 509.583 140.524 514.481 138.318C519.379 136.111 524.599 135.008 530.143 135.008C536.709 135.008 542.791 136.542 548.388 139.609C554.04 142.677 558.695 146.795 562.355 151.961L552.264 157.37C549.465 153.818 546.101 151.1 542.172 149.217C538.243 147.279 534.233 146.31 530.143 146.31C524.707 146.31 519.782 147.763 515.369 150.67C510.956 153.522 507.457 157.317 504.874 162.053C502.344 166.789 501.08 171.983 501.08 177.634C501.08 183.285 502.371 188.479 504.955 193.215C507.592 197.952 511.117 201.746 515.531 204.599C519.944 207.397 524.815 208.797 530.143 208.797C534.556 208.797 538.701 207.774 542.576 205.729C546.451 203.684 549.68 201.019 552.264 197.736ZM611.348 220.099C603.921 220.099 597.139 218.188 591.003 214.367C584.922 210.546 580.051 205.433 576.391 199.028C572.785 192.569 570.982 185.438 570.982 177.634C570.982 171.714 572.032 166.197 574.131 161.084C576.23 155.917 579.109 151.396 582.769 147.521C586.482 143.592 590.788 140.524 595.686 138.318C600.584 136.111 605.804 135.008 611.348 135.008C618.775 135.008 625.53 136.918 631.612 140.74C637.747 144.561 642.618 149.701 646.224 156.159C649.884 162.618 651.714 169.776 651.714 177.634C651.714 183.501 650.664 188.99 648.565 194.103C646.466 199.216 643.56 203.737 639.846 207.666C636.186 211.541 631.908 214.582 627.01 216.789C622.166 218.996 616.945 220.099 611.348 220.099ZM611.348 208.797C616.838 208.797 621.762 207.37 626.122 204.518C630.535 201.611 634.007 197.79 636.536 193.054C639.12 188.318 640.411 183.178 640.411 177.634C640.411 171.983 639.12 166.789 636.536 162.053C633.953 157.263 630.454 153.441 626.041 150.589C621.682 147.736 616.784 146.31 611.348 146.31C605.858 146.31 600.907 147.763 596.493 150.67C592.134 153.522 588.662 157.317 586.079 162.053C583.549 166.789 582.284 171.983 582.284 177.634C582.284 183.447 583.603 188.721 586.24 193.458C588.878 198.14 592.403 201.881 596.816 204.679C601.23 207.424 606.073 208.797 611.348 208.797ZM690.492 219.534C686.078 219.426 681.772 218.619 677.574 217.112C673.376 215.605 669.717 213.56 666.595 210.976C663.473 208.393 661.24 205.46 659.894 202.177L669.663 197.979C670.524 200.078 672.112 202.015 674.426 203.791C676.794 205.513 679.485 206.913 682.499 207.989C685.513 209.012 688.5 209.523 691.46 209.523C694.743 209.523 697.811 208.985 700.664 207.909C703.516 206.832 705.831 205.298 707.607 203.307C709.437 201.262 710.352 198.867 710.352 196.122C710.352 193.162 709.383 190.847 707.445 189.179C705.508 187.456 703.059 186.111 700.099 185.142C697.138 184.12 694.098 183.151 690.976 182.236C685.271 180.675 680.239 178.953 675.879 177.069C671.52 175.185 668.102 172.79 665.626 169.884C663.204 166.924 661.993 163.129 661.993 158.501C661.993 153.603 663.366 149.378 666.111 145.826C668.909 142.22 672.542 139.448 677.009 137.51C681.53 135.519 686.347 134.523 691.46 134.523C698.026 134.523 704.001 135.95 709.383 138.802C714.819 141.655 718.748 145.449 721.17 150.185L712.047 155.594C711.078 153.388 709.544 151.477 707.445 149.862C705.346 148.248 702.951 146.983 700.26 146.068C697.623 145.153 694.932 144.669 692.187 144.615C688.742 144.561 685.54 145.072 682.58 146.149C679.62 147.171 677.225 148.705 675.395 150.75C673.619 152.796 672.731 155.298 672.731 158.258C672.731 161.219 673.619 163.479 675.395 165.04C677.171 166.547 679.566 167.785 682.58 168.754C685.648 169.669 689.092 170.745 692.913 171.983C697.811 173.544 702.413 175.32 706.719 177.311C711.024 179.303 714.496 181.778 717.133 184.739C719.77 187.699 721.062 191.439 721.008 195.96C721.008 200.804 719.555 205.029 716.649 208.635C713.742 212.241 709.975 215.013 705.346 216.95C700.718 218.834 695.766 219.695 690.492 219.534Z" fill="white"/>
<path d="M301.658 357.549C299.391 357.549 297.288 357.165 295.35 356.397C293.412 355.629 291.711 354.458 290.249 352.886L291.51 350.966C293.083 352.465 294.674 353.562 296.283 354.257C297.892 354.916 299.647 355.245 301.549 355.245C303.999 355.245 305.974 354.733 307.473 353.709C309.009 352.685 309.777 351.259 309.777 349.43C309.777 348.187 309.411 347.236 308.68 346.578C307.985 345.883 306.961 345.334 305.608 344.932C304.291 344.493 302.682 344.036 300.781 343.561C298.842 343.049 297.197 342.518 295.844 341.97C294.527 341.421 293.54 340.708 292.882 339.831C292.223 338.953 291.894 337.764 291.894 336.265C291.894 334.4 292.351 332.864 293.266 331.657C294.216 330.414 295.478 329.5 297.051 328.914C298.66 328.293 300.433 327.982 302.371 327.982C304.602 327.982 306.54 328.348 308.186 329.079C309.868 329.81 311.148 330.78 312.026 331.986L310.545 333.742C309.631 332.571 308.442 331.712 306.979 331.164C305.516 330.578 303.907 330.286 302.152 330.286C300.836 330.286 299.592 330.469 298.422 330.834C297.252 331.2 296.301 331.803 295.569 332.645C294.875 333.449 294.527 334.546 294.527 335.936C294.527 337.033 294.783 337.892 295.295 338.514C295.844 339.136 296.648 339.648 297.709 340.05C298.769 340.416 300.086 340.818 301.658 341.257C303.889 341.805 305.809 342.372 307.418 342.957C309.027 343.542 310.271 344.31 311.148 345.261C312.026 346.175 312.465 347.474 312.465 349.156C312.465 351.752 311.477 353.8 309.503 355.3C307.528 356.799 304.913 357.549 301.658 357.549ZM363.453 355.629C363.27 355.702 362.904 355.885 362.356 356.177C361.807 356.47 361.112 356.744 360.271 357C359.43 357.219 358.498 357.329 357.474 357.329C356.486 357.329 355.554 357.146 354.676 356.781C353.835 356.378 353.158 355.793 352.647 355.025C352.135 354.257 351.879 353.325 351.879 352.228V330.725H347.874V328.476H351.879V318.712H354.621V328.476H361.259V330.725H354.621V351.569C354.694 352.63 355.078 353.434 355.773 353.983C356.468 354.495 357.273 354.751 358.187 354.751C359.32 354.751 360.308 354.568 361.149 354.202C361.99 353.8 362.484 353.544 362.63 353.434L363.453 355.629ZM399.839 344.932V328.476H402.581V344.548C402.581 348.095 403.166 350.747 404.337 352.502C405.543 354.221 407.354 355.08 409.767 355.08C411.376 355.08 412.912 354.733 414.375 354.038C415.874 353.306 417.191 352.301 418.325 351.021C419.458 349.704 420.299 348.187 420.848 346.468V328.476H423.591V353.38C423.591 353.818 423.682 354.148 423.865 354.367C424.084 354.586 424.377 354.714 424.743 354.751V357C424.377 357.037 424.084 357.055 423.865 357.055C423.682 357.055 423.517 357.037 423.371 357C422.749 356.927 422.237 356.671 421.835 356.232C421.433 355.757 421.214 355.19 421.177 354.532L421.122 350.253C419.879 352.52 418.16 354.312 415.966 355.629C413.808 356.909 411.468 357.549 408.944 357.549C405.946 357.549 403.678 356.488 402.142 354.367C400.607 352.246 399.839 349.101 399.839 344.932ZM462.149 342.793C462.149 340.123 462.715 337.673 463.849 335.442C464.983 333.211 466.537 331.419 468.512 330.066C470.487 328.677 472.736 327.982 475.259 327.982C477.746 327.982 479.94 328.64 481.841 329.957C483.78 331.273 485.297 332.846 486.394 334.674V316.956H489.137V353.38C489.137 353.818 489.228 354.148 489.411 354.367C489.631 354.586 489.923 354.714 490.289 354.751V357C489.704 357.073 489.265 357.091 488.972 357.055C488.314 356.945 487.766 356.634 487.327 356.122C486.888 355.61 486.669 355.062 486.669 354.477V351.295C485.498 353.197 483.926 354.714 481.951 355.848C479.976 356.982 477.947 357.549 475.862 357.549C473.887 357.549 472.059 357.146 470.377 356.342C468.695 355.501 467.232 354.385 465.988 352.996C464.782 351.606 463.831 350.033 463.136 348.278C462.478 346.523 462.149 344.694 462.149 342.793ZM486.394 347.4V338.02C485.882 336.631 485.06 335.369 483.926 334.235C482.792 333.065 481.512 332.151 480.086 331.493C478.66 330.798 477.252 330.45 475.862 330.45C474.217 330.45 472.717 330.798 471.364 331.493C470.048 332.187 468.896 333.12 467.908 334.29C466.958 335.46 466.226 336.795 465.714 338.295C465.202 339.757 464.946 341.275 464.946 342.848C464.946 344.457 465.239 346.011 465.824 347.51C466.409 348.973 467.214 350.289 468.237 351.46C469.298 352.593 470.505 353.489 471.858 354.148C473.248 354.769 474.747 355.08 476.356 355.08C477.343 355.08 478.386 354.879 479.483 354.477C480.616 354.074 481.677 353.526 482.664 352.831C483.688 352.1 484.529 351.277 485.188 350.363C485.882 349.412 486.285 348.424 486.394 347.4ZM529.687 357V328.476H532.43V357H529.687ZM529.687 322.003V316.956H532.43V322.003H529.687ZM584.818 357.549C582.807 357.549 580.942 357.165 579.223 356.397C577.541 355.629 576.078 354.568 574.834 353.215C573.591 351.825 572.622 350.235 571.927 348.443C571.232 346.651 570.885 344.767 570.885 342.793C570.885 340.781 571.232 338.898 571.927 337.143C572.622 335.351 573.591 333.778 574.834 332.425C576.114 331.036 577.595 329.957 579.278 329.189C580.996 328.384 582.843 327.982 584.818 327.982C586.793 327.982 588.621 328.384 590.303 329.189C591.986 329.957 593.467 331.036 594.747 332.425C596.027 333.778 597.014 335.351 597.709 337.143C598.404 338.898 598.751 340.781 598.751 342.793C598.751 344.767 598.404 346.651 597.709 348.443C597.014 350.235 596.027 351.825 594.747 353.215C593.503 354.568 592.022 355.629 590.303 356.397C588.621 357.165 586.793 357.549 584.818 357.549ZM573.628 342.902C573.628 345.133 574.121 347.181 575.109 349.046C576.133 350.875 577.486 352.337 579.168 353.434C580.85 354.532 582.715 355.08 584.763 355.08C586.811 355.08 588.676 354.532 590.358 353.434C592.077 352.301 593.43 350.801 594.417 348.936C595.441 347.035 595.953 344.969 595.953 342.738C595.953 340.507 595.441 338.459 594.417 336.594C593.43 334.729 592.077 333.248 590.358 332.151C588.676 331.017 586.829 330.45 584.818 330.45C582.77 330.45 580.905 331.017 579.223 332.151C577.541 333.285 576.187 334.784 575.164 336.649C574.14 338.514 573.628 340.598 573.628 342.902Z" fill="white"/>
<defs>
<linearGradient id="paint0_linear_231_37" x1="268.537" y1="90.9276" x2="176.699" y2="231.922" gradientUnits="userSpaceOnUse">
<stop stop-color="#CF0A0A"/>
<stop offset="1" stop-color="#690505"/>
</linearGradient>
<linearGradient id="paint1_linear_231_37" x1="283.016" y1="147.271" x2="283.016" y2="241.396" gradientUnits="userSpaceOnUse">
<stop stop-color="#CF0A0A"/>
<stop offset="1" stop-color="#690505"/>
</linearGradient>
</defs>
</svg>
