<svg width="565" height="323" viewBox="0 0 565 323" fill="none" xmlns="http://www.w3.org/2000/svg">
<path d="M112.839 95.3296L99.3224 86.5255C95.0612 83.75 89.3626 84.958 86.5941 89.2236L5.01286 214.921C2.24434 219.187 3.45432 224.895 7.71543 227.67L21.232 236.474C25.4931 239.25 31.1917 238.042 33.9603 233.776L115.541 108.079C118.31 103.813 117.1 98.1051 112.839 95.3296Z" fill="url(#paint0_linear_231_38)"/>
<path d="M116.93 149.24C118.631 146.614 122.474 146.614 124.175 149.24L179.535 234.733C181.394 237.605 179.332 241.396 175.912 241.396H148.056C146.202 241.396 144.474 240.456 143.467 238.9L126.435 212.593C124.281 209.265 119.412 209.265 117.257 212.593L100.226 238.9C99.2181 240.456 97.4906 241.396 95.6368 241.396H65.2065C61.7861 241.395 59.7256 237.606 61.5845 234.734L116.93 149.24Z" fill="url(#paint1_linear_231_38)"/>
<path d="M306.284 137.268H317.586V218H306.284L305.88 202.984C303.243 208.097 299.556 212.241 294.82 215.417C290.084 218.538 284.432 220.099 277.866 220.099C271.946 220.099 266.402 218.996 261.235 216.789C256.069 214.529 251.521 211.434 247.592 207.505C243.663 203.576 240.595 199.028 238.388 193.861C236.182 188.694 235.078 183.151 235.078 177.23C235.078 171.418 236.155 165.955 238.308 160.842C240.514 155.729 243.528 151.235 247.35 147.36C251.225 143.485 255.692 140.471 260.751 138.318C265.864 136.111 271.327 135.008 277.14 135.008C283.867 135.008 289.734 136.622 294.739 139.852C299.744 143.027 303.727 147.198 306.687 152.365L306.284 137.268ZM277.624 209.12C283.383 209.12 288.334 207.72 292.479 204.921C296.623 202.069 299.798 198.248 302.005 193.458C304.265 188.667 305.396 183.393 305.396 177.634C305.396 171.714 304.265 166.385 302.005 161.649C299.744 156.859 296.542 153.065 292.398 150.266C288.254 147.467 283.329 146.068 277.624 146.068C271.919 146.068 266.698 147.494 261.962 150.347C257.28 153.145 253.539 156.94 250.74 161.73C247.995 166.52 246.623 171.821 246.623 177.634C246.623 183.501 248.049 188.829 250.902 193.619C253.754 198.355 257.522 202.123 262.204 204.921C266.94 207.72 272.08 209.12 277.624 209.12ZM389.807 197.736L399.899 203.226C396.239 208.339 391.583 212.43 385.932 215.497C380.335 218.565 374.253 220.099 367.687 220.099C360.259 220.099 353.478 218.188 347.342 214.367C341.26 210.546 336.39 205.433 332.73 199.028C329.124 192.569 327.321 185.438 327.321 177.634C327.321 171.714 328.37 166.197 330.469 161.084C332.568 155.917 335.448 151.396 339.107 147.521C342.821 143.592 347.127 140.524 352.025 138.318C356.922 136.111 362.143 135.008 367.687 135.008C374.253 135.008 380.335 136.542 385.932 139.609C391.583 142.677 396.239 146.795 399.899 151.961L389.807 157.37C387.008 153.818 383.645 151.1 379.716 149.217C375.787 147.279 371.777 146.31 367.687 146.31C362.251 146.31 357.326 147.763 352.913 150.67C348.499 153.522 345.001 157.317 342.417 162.053C339.888 166.789 338.623 171.983 338.623 177.634C338.623 183.285 339.915 188.479 342.498 193.215C345.135 197.952 348.661 201.746 353.074 204.599C357.487 207.397 362.358 208.797 367.687 208.797C372.1 208.797 376.244 207.774 380.119 205.729C383.994 203.684 387.224 201.019 389.807 197.736ZM448.891 220.099C441.464 220.099 434.683 218.188 428.547 214.367C422.465 210.546 417.594 205.433 413.934 199.028C410.328 192.569 408.525 185.438 408.525 177.634C408.525 171.714 409.575 166.197 411.674 161.084C413.773 155.917 416.652 151.396 420.312 147.521C424.026 143.592 428.332 140.524 433.229 138.318C438.127 136.111 443.348 135.008 448.891 135.008C456.319 135.008 463.073 136.918 469.155 140.74C475.291 144.561 480.161 149.701 483.767 156.159C487.427 162.618 489.257 169.776 489.257 177.634C489.257 183.501 488.208 188.99 486.109 194.103C484.01 199.216 481.103 203.737 477.39 207.666C473.73 211.541 469.451 214.582 464.553 216.789C459.709 218.996 454.489 220.099 448.891 220.099ZM448.891 208.797C454.381 208.797 459.306 207.37 463.665 204.518C468.079 201.611 471.55 197.79 474.08 193.054C476.663 188.318 477.955 183.178 477.955 177.634C477.955 171.983 476.663 166.789 474.08 162.053C471.496 157.263 467.998 153.441 463.585 150.589C459.225 147.736 454.327 146.31 448.891 146.31C443.402 146.31 438.45 147.763 434.037 150.67C429.677 153.522 426.206 157.317 423.622 162.053C421.093 166.789 419.828 171.983 419.828 177.634C419.828 183.447 421.147 188.721 423.784 193.458C426.421 198.14 429.946 201.881 434.36 204.679C438.773 207.424 443.617 208.797 448.891 208.797ZM528.035 219.534C523.622 219.426 519.316 218.619 515.118 217.112C510.92 215.605 507.26 213.56 504.138 210.976C501.017 208.393 498.783 205.46 497.438 202.177L507.206 197.979C508.067 200.078 509.655 202.015 511.969 203.791C514.337 205.513 517.029 206.913 520.043 207.989C523.057 209.012 526.044 209.523 529.004 209.523C532.287 209.523 535.355 208.985 538.207 207.909C541.06 206.832 543.374 205.298 545.15 203.307C546.98 201.262 547.895 198.867 547.895 196.122C547.895 193.162 546.926 190.847 544.989 189.179C543.051 187.456 540.602 186.111 537.642 185.142C534.682 184.12 531.641 183.151 528.519 182.236C522.814 180.675 517.782 178.953 513.423 177.069C509.063 175.185 505.645 172.79 503.17 169.884C500.748 166.924 499.537 163.129 499.537 158.501C499.537 153.603 500.909 149.378 503.654 145.826C506.453 142.22 510.086 139.448 514.553 137.51C519.074 135.519 523.891 134.523 529.004 134.523C535.57 134.523 541.544 135.95 546.926 138.802C552.362 141.655 556.291 145.449 558.713 150.185L549.59 155.594C548.622 153.388 547.088 151.477 544.989 149.862C542.89 148.248 540.495 146.983 537.804 146.068C535.166 145.153 532.475 144.669 529.73 144.615C526.286 144.561 523.083 145.072 520.123 146.149C517.163 147.171 514.768 148.705 512.938 150.75C511.162 152.796 510.274 155.298 510.274 158.258C510.274 161.219 511.162 163.479 512.938 165.04C514.714 166.547 517.109 167.785 520.123 168.754C523.191 169.669 526.636 170.745 530.457 171.983C535.355 173.544 539.956 175.32 544.262 177.311C548.568 179.303 552.039 181.778 554.676 184.739C557.314 187.699 558.605 191.439 558.552 195.96C558.552 200.804 557.098 205.029 554.192 208.635C551.286 212.241 547.518 215.013 542.89 216.95C538.261 218.834 533.309 219.695 528.035 219.534Z" fill="white"/>
<defs>
<linearGradient id="paint0_linear_231_38" x1="106.081" y1="90.9276" x2="14.2427" y2="231.922" gradientUnits="userSpaceOnUse">
<stop stop-color="#CF0A0A"/>
<stop offset="1" stop-color="#690505"/>
</linearGradient>
<linearGradient id="paint1_linear_231_38" x1="120.559" y1="147.271" x2="120.559" y2="241.396" gradientUnits="userSpaceOnUse">
<stop stop-color="#CF0A0A"/>
<stop offset="1" stop-color="#690505"/>
</linearGradient>
</defs>
</svg>
