<svg width="297" height="200" viewBox="0 0 297 200" fill="none" xmlns="http://www.w3.org/2000/svg">
<path d="M55.5295 49.0319L48.4991 44.5963C46.3185 43.2205 43.4817 43.9013 42.163 46.1169L2.42134 112.886C1.10261 115.102 1.80131 118.013 3.98193 119.389L11.0123 123.825C13.1929 125.201 16.0297 124.52 17.3485 122.304L57.0901 55.5347C58.4089 53.3191 57.7102 50.4077 55.5295 49.0319Z" fill="#EEEEEE"/>
<path fill-rule="evenodd" clip-rule="evenodd" d="M70.8894 76.6198C69.1058 73.4396 64.5287 73.4396 62.7454 76.6198L38.8767 119.184C37.1317 122.295 39.3808 126.136 42.9488 126.136H49.4531L63.2152 103.014C64.534 100.799 67.371 100.118 69.5512 101.494L76.5815 105.929C78.7624 107.305 79.4611 110.217 78.1427 112.432L69.9861 126.136H90.6861C94.2538 126.136 96.5032 122.295 94.7578 119.184L70.8894 76.6198Z" fill="#EEEEEE"/>
<path d="M161.34 71.7105H167.235V113.816H161.34L161.13 105.984C159.755 108.651 157.832 110.812 155.362 112.468C152.892 114.097 149.944 114.911 146.519 114.911C143.432 114.911 140.54 114.335 137.846 113.184C135.151 112.005 132.779 110.391 130.73 108.342C128.681 106.293 127.081 103.921 125.93 101.226C124.779 98.5316 124.204 95.6401 124.204 92.5526C124.204 89.521 124.765 86.6717 125.888 84.0053C127.039 81.3388 128.611 78.9947 130.604 76.9737C132.625 74.9526 134.955 73.3809 137.593 72.2579C140.26 71.1072 143.109 70.5316 146.14 70.5316C149.65 70.5316 152.709 71.3737 155.319 73.0579C157.93 74.7138 160.008 76.8895 161.551 79.5842L161.34 71.7105ZM146.393 109.184C149.397 109.184 151.979 108.455 154.14 106.995C156.302 105.507 157.958 103.514 159.109 101.016C160.288 98.5178 160.877 95.7664 160.877 92.7631C160.877 89.6756 160.288 86.8967 159.109 84.4263C157.93 81.9283 156.26 79.9493 154.098 78.4895C151.937 77.0296 149.369 76.3 146.393 76.3C143.418 76.3 140.695 77.0441 138.225 78.5316C135.783 79.9914 133.832 81.9704 132.372 84.4684C130.94 86.9664 130.225 89.7316 130.225 92.7631C130.225 95.823 130.969 98.602 132.456 101.1C133.944 103.57 135.909 105.535 138.351 106.995C140.821 108.455 143.502 109.184 146.393 109.184ZM204.902 103.247L210.165 106.111C208.256 108.777 205.828 110.911 202.881 112.511C199.962 114.111 196.79 114.911 193.365 114.911C189.491 114.911 185.954 113.914 182.754 111.921C179.583 109.928 177.042 107.261 175.133 103.921C173.253 100.553 172.312 96.8335 172.312 92.7631C172.312 89.6756 172.86 86.798 173.954 84.1316C175.049 81.4368 176.551 79.0789 178.46 77.0579C180.396 75.0085 182.642 73.4085 185.196 72.2579C187.751 71.1072 190.474 70.5316 193.365 70.5316C196.79 70.5316 199.962 71.3316 202.881 72.9316C205.828 74.5316 208.256 76.6789 210.165 79.3737L204.902 82.1947C203.442 80.3421 201.688 78.9243 199.638 77.9421C197.59 76.9316 195.498 76.4263 193.365 76.4263C190.53 76.4263 187.962 77.1842 185.66 78.7C183.358 80.1875 181.533 82.1664 180.186 84.6368C178.867 87.1072 178.207 89.8158 178.207 92.7631C178.207 95.7105 178.881 98.4191 180.228 100.889C181.604 103.36 183.442 105.339 185.744 106.826C188.046 108.286 190.586 109.016 193.365 109.016C195.667 109.016 197.828 108.482 199.849 107.416C201.87 106.349 203.554 104.96 204.902 103.247ZM235.717 114.911C231.843 114.911 228.306 113.914 225.106 111.921C221.935 109.928 219.394 107.261 217.485 103.921C215.605 100.553 214.664 96.8335 214.664 92.7631C214.664 89.6756 215.212 86.798 216.306 84.1316C217.401 81.4368 218.903 79.0789 220.812 77.0579C222.748 75.0085 224.994 73.4085 227.548 72.2579C230.103 71.1072 232.826 70.5316 235.717 70.5316C239.59 70.5316 243.113 71.5283 246.285 73.521C249.485 75.5138 252.026 78.1947 253.906 81.5631C255.815 84.9316 256.769 88.6651 256.769 92.7631C256.769 95.823 256.222 98.6862 255.127 101.353C254.033 104.019 252.517 106.377 250.58 108.426C248.671 110.447 246.44 112.034 243.885 113.184C241.359 114.335 238.637 114.911 235.717 114.911ZM235.717 109.016C238.58 109.016 241.148 108.272 243.422 106.784C245.724 105.268 247.535 103.276 248.854 100.805C250.201 98.3349 250.875 95.6546 250.875 92.7631C250.875 89.8158 250.201 87.1072 248.854 84.6368C247.506 82.1388 245.682 80.1454 243.38 78.6579C241.106 77.1704 238.552 76.4263 235.717 76.4263C232.854 76.4263 230.271 77.1842 227.969 78.7C225.696 80.1875 223.885 82.1664 222.538 84.6368C221.219 87.1072 220.559 89.8158 220.559 92.7631C220.559 95.7947 221.247 98.5454 222.622 101.016C223.998 103.458 225.837 105.409 228.138 106.868C230.44 108.3 232.966 109.016 235.717 109.016ZM276.994 114.616C274.692 114.56 272.446 114.139 270.257 113.353C268.067 112.566 266.159 111.5 264.531 110.153C262.903 108.805 261.738 107.276 261.036 105.563L266.131 103.374C266.58 104.468 267.408 105.479 268.615 106.405C269.85 107.303 271.254 108.034 272.825 108.595C274.398 109.128 275.956 109.395 277.499 109.395C279.212 109.395 280.812 109.114 282.299 108.553C283.787 107.991 284.994 107.191 285.92 106.153C286.875 105.086 287.352 103.837 287.352 102.405C287.352 100.861 286.846 99.6546 285.836 98.7842C284.825 97.8862 283.548 97.1842 282.004 96.6789C280.461 96.1454 278.875 95.6401 277.246 95.1631C274.271 94.3493 271.646 93.4506 269.373 92.4684C267.099 91.4862 265.317 90.2368 264.025 88.721C262.762 87.177 262.131 85.198 262.131 82.7842C262.131 80.2296 262.846 78.0263 264.278 76.1737C265.738 74.2927 267.633 72.8474 269.962 71.8368C272.32 70.798 274.833 70.2789 277.499 70.2789C280.924 70.2789 284.04 71.023 286.846 72.5105C289.682 73.998 291.731 75.977 292.994 78.4474L288.236 81.2684C287.731 80.1177 286.931 79.121 285.836 78.2789C284.741 77.4368 283.492 76.777 282.088 76.3C280.713 75.823 279.31 75.5704 277.878 75.5421C276.082 75.5138 274.412 75.7809 272.867 76.3421C271.324 76.8756 270.075 77.6756 269.12 78.7421C268.194 79.8085 267.731 81.1138 267.731 82.6579C267.731 84.202 268.194 85.3809 269.12 86.1947C270.046 86.9809 271.296 87.6263 272.867 88.1316C274.467 88.6085 276.264 89.1704 278.257 89.8158C280.812 90.6296 283.212 91.5559 285.457 92.5947C287.703 93.6335 289.513 94.9243 290.888 96.4684C292.264 98.0125 292.938 99.9631 292.91 102.321C292.91 104.847 292.152 107.051 290.636 108.932C289.12 110.812 287.156 112.258 284.741 113.268C282.327 114.251 279.745 114.7 276.994 114.616Z" fill="#EEEEEE"/>
<path d="M5.93693 189.553C5.15798 189.553 4.44746 189.395 3.80535 189.079C3.16325 188.753 2.61061 188.321 2.14746 187.784C1.6843 187.247 1.3264 186.642 1.07377 185.968C0.82114 185.284 0.694824 184.584 0.694824 183.868C0.694824 183.121 0.826403 182.411 1.08956 181.737C1.35272 181.053 1.72114 180.447 2.19482 179.921C2.67903 179.384 3.23693 178.963 3.86851 178.658C4.51061 178.342 5.20535 178.184 5.95272 178.184C6.74219 178.184 7.45272 178.347 8.0843 178.674C8.7264 179 9.27904 179.437 9.74219 179.984C10.2054 180.532 10.5632 181.142 10.8159 181.816C11.0685 182.489 11.1948 183.174 11.1948 183.868C11.1948 184.626 11.0632 185.347 10.8001 186.032C10.5369 186.705 10.1632 187.311 9.67904 187.847C9.20535 188.374 8.64746 188.789 8.00535 189.095C7.37377 189.4 6.6843 189.553 5.93693 189.553ZM5.95272 188.811C6.61588 188.811 7.22114 188.668 7.76851 188.384C8.31588 188.1 8.7843 187.721 9.17377 187.247C9.56325 186.774 9.85798 186.247 10.058 185.668C10.2685 185.079 10.3738 184.479 10.3738 183.868C10.3738 183.226 10.2632 182.611 10.0422 182.021C9.83167 181.432 9.5264 180.905 9.1264 180.442C8.7264 179.979 8.25272 179.611 7.70535 179.337C7.16851 179.063 6.5843 178.926 5.95272 178.926C5.27904 178.926 4.66851 179.068 4.12114 179.353C3.57377 179.637 3.10535 180.016 2.71588 180.489C2.33693 180.963 2.03693 181.495 1.81588 182.084C1.60535 182.663 1.50009 183.258 1.50009 183.868C1.50009 184.511 1.61061 185.126 1.83167 185.716C2.05272 186.305 2.35798 186.832 2.74746 187.295C3.14746 187.758 3.61588 188.126 4.15272 188.4C4.70009 188.674 5.30009 188.811 5.95272 188.811ZM7.27904 186.221H8.11588L10.8159 189.474H9.97904L7.27904 186.221ZM37.3573 189.553C36.4625 189.553 35.7152 189.395 35.1152 189.079C34.5152 188.763 34.0362 188.337 33.6783 187.8C33.3204 187.253 33.0625 186.642 32.9046 185.968C32.7467 185.295 32.6678 184.605 32.6678 183.9V178.263H33.473V183.9C33.473 184.511 33.5362 185.111 33.6625 185.7C33.7888 186.289 33.9941 186.821 34.2783 187.295C34.5731 187.758 34.9678 188.126 35.4625 188.4C35.9678 188.674 36.5941 188.811 37.3415 188.811C38.0994 188.811 38.7257 188.668 39.2204 188.384C39.7257 188.1 40.1204 187.726 40.4046 187.263C40.6994 186.789 40.9046 186.263 41.0204 185.684C41.1467 185.095 41.2099 184.5 41.2099 183.9V178.263H42.0152V183.9C42.0152 184.647 41.9309 185.363 41.7625 186.047C41.6046 186.721 41.3415 187.321 40.9731 187.847C40.6046 188.374 40.1257 188.789 39.5362 189.095C38.9467 189.4 38.2204 189.553 37.3573 189.553ZM64.2761 189.474V178.263H65.0813V189.474H64.2761ZM86.7494 183.789C86.7494 183.116 86.8652 182.453 87.0968 181.8C87.3389 181.137 87.6863 180.537 88.1389 180C88.5915 179.453 89.1442 179.016 89.7968 178.689C90.46 178.363 91.2126 178.2 92.0547 178.2C93.0547 178.2 93.9073 178.432 94.6126 178.895C95.3179 179.347 95.8442 179.932 96.1915 180.647L95.5284 181.026C95.2652 180.511 94.9389 180.1 94.5494 179.795C94.1705 179.489 93.76 179.274 93.3179 179.147C92.8758 179.011 92.4336 178.942 91.9915 178.942C91.2863 178.942 90.6547 179.084 90.0968 179.368C89.5494 179.653 89.0863 180.032 88.7073 180.505C88.3284 180.979 88.0389 181.505 87.8389 182.084C87.6494 182.663 87.5547 183.247 87.5547 183.837C87.5547 184.5 87.6705 185.132 87.9021 185.732C88.1336 186.321 88.4494 186.847 88.8494 187.311C89.26 187.774 89.7336 188.142 90.2705 188.416C90.8179 188.689 91.4073 188.826 92.0389 188.826C92.4915 188.826 92.9494 188.753 93.4126 188.605C93.8863 188.447 94.3284 188.211 94.7389 187.895C95.1494 187.568 95.481 187.147 95.7336 186.632L96.4284 186.963C96.1863 187.521 95.8231 187.995 95.3389 188.384C94.8547 188.774 94.3179 189.068 93.7284 189.268C93.1389 189.468 92.5547 189.568 91.9757 189.568C91.2179 189.568 90.5179 189.405 89.8757 189.079C89.2336 188.742 88.6758 188.3 88.2021 187.753C87.7389 187.195 87.381 186.574 87.1284 185.889C86.8758 185.195 86.7494 184.495 86.7494 183.789ZM117.924 189.474V178.263H118.73V185.068L125.267 178.263H126.198L121.54 183.174L126.435 189.474H125.503L121.003 183.679L118.73 186.016V189.474H117.924ZM177.338 180.126C177.159 179.926 176.959 179.753 176.738 179.605C176.517 179.447 176.28 179.321 176.028 179.226C175.775 179.121 175.501 179.042 175.207 178.989C174.912 178.937 174.596 178.911 174.259 178.911C173.165 178.911 172.365 179.121 171.859 179.542C171.365 179.953 171.117 180.511 171.117 181.216C171.117 181.689 171.228 182.068 171.449 182.353C171.68 182.626 172.038 182.847 172.522 183.016C173.007 183.184 173.633 183.347 174.401 183.505C175.212 183.674 175.912 183.874 176.501 184.105C177.091 184.326 177.544 184.632 177.859 185.021C178.186 185.411 178.349 185.937 178.349 186.6C178.349 187.095 178.254 187.532 178.065 187.911C177.875 188.279 177.601 188.584 177.244 188.826C176.886 189.068 176.459 189.253 175.965 189.379C175.48 189.505 174.938 189.568 174.338 189.568C173.759 189.568 173.207 189.505 172.68 189.379C172.154 189.253 171.659 189.068 171.196 188.826C170.733 188.584 170.301 188.274 169.901 187.895L170.328 187.247C170.559 187.5 170.817 187.726 171.101 187.926C171.396 188.116 171.712 188.279 172.049 188.416C172.396 188.553 172.765 188.663 173.154 188.747C173.544 188.821 173.949 188.858 174.37 188.858C175.349 188.858 176.112 188.679 176.659 188.321C177.217 187.953 177.496 187.411 177.496 186.695C177.496 186.2 177.37 185.8 177.117 185.495C176.865 185.189 176.475 184.942 175.949 184.753C175.422 184.553 174.765 184.368 173.975 184.2C173.186 184.032 172.512 183.842 171.954 183.632C171.407 183.421 170.991 183.137 170.707 182.779C170.433 182.421 170.296 181.937 170.296 181.326C170.296 180.653 170.459 180.084 170.786 179.621C171.122 179.147 171.591 178.789 172.191 178.547C172.791 178.305 173.48 178.184 174.259 178.184C174.744 178.184 175.191 178.232 175.601 178.326C176.022 178.421 176.407 178.568 176.754 178.768C177.112 178.958 177.444 179.2 177.749 179.495L177.338 180.126ZM207.663 178.989H203.557V189.474H202.752V178.989H198.647V178.263H207.663V178.989ZM236.375 188.747V189.474H228.907V178.263H236.233V178.989H229.712V183.395H235.412V184.089H229.712V188.747H236.375ZM258.074 189.474V178.263H262.685C263.159 178.263 263.59 178.363 263.98 178.563C264.38 178.763 264.727 179.032 265.022 179.368C265.317 179.695 265.543 180.063 265.701 180.474C265.869 180.884 265.953 181.305 265.953 181.737C265.953 182.337 265.817 182.905 265.543 183.442C265.28 183.968 264.911 184.4 264.438 184.737C263.974 185.074 263.422 185.242 262.78 185.242H258.88V189.474H258.074ZM258.88 184.5H262.748C263.243 184.5 263.669 184.368 264.027 184.105C264.385 183.842 264.659 183.5 264.848 183.079C265.038 182.658 265.132 182.211 265.132 181.737C265.132 181.242 265.017 180.789 264.785 180.379C264.564 179.958 264.264 179.621 263.885 179.368C263.517 179.116 263.106 178.989 262.653 178.989H258.88V184.5ZM293.902 180.126C293.723 179.926 293.523 179.753 293.302 179.605C293.081 179.447 292.844 179.321 292.592 179.226C292.339 179.121 292.065 179.042 291.771 178.989C291.476 178.937 291.16 178.911 290.823 178.911C289.728 178.911 288.928 179.121 288.423 179.542C287.928 179.953 287.681 180.511 287.681 181.216C287.681 181.689 287.792 182.068 288.013 182.353C288.244 182.626 288.602 182.847 289.086 183.016C289.571 183.184 290.197 183.347 290.965 183.505C291.776 183.674 292.476 183.874 293.065 184.105C293.655 184.326 294.107 184.632 294.423 185.021C294.749 185.411 294.913 185.937 294.913 186.6C294.913 187.095 294.818 187.532 294.628 187.911C294.439 188.279 294.165 188.584 293.807 188.826C293.449 189.068 293.023 189.253 292.528 189.379C292.044 189.505 291.502 189.568 290.902 189.568C290.323 189.568 289.771 189.505 289.244 189.379C288.718 189.253 288.223 189.068 287.76 188.826C287.297 188.584 286.865 188.274 286.465 187.895L286.892 187.247C287.123 187.5 287.381 187.726 287.665 187.926C287.96 188.116 288.276 188.279 288.613 188.416C288.96 188.553 289.328 188.663 289.718 188.747C290.107 188.821 290.513 188.858 290.934 188.858C291.913 188.858 292.676 188.679 293.223 188.321C293.781 187.953 294.06 187.411 294.06 186.695C294.06 186.2 293.934 185.8 293.681 185.495C293.428 185.189 293.039 184.942 292.513 184.753C291.986 184.553 291.328 184.368 290.539 184.2C289.749 184.032 289.076 183.842 288.518 183.632C287.971 183.421 287.555 183.137 287.271 182.779C286.997 182.421 286.86 181.937 286.86 181.326C286.86 180.653 287.023 180.084 287.349 179.621C287.686 179.147 288.155 178.789 288.755 178.547C289.355 178.305 290.044 178.184 290.823 178.184C291.307 178.184 291.755 178.232 292.165 178.326C292.586 178.421 292.97 178.568 293.318 178.768C293.676 178.958 294.007 179.2 294.313 179.495L293.902 180.126Z" fill="#EEEEEE"/>
</svg>
