<svg width="100" height="100" viewBox="0 0 100 100" fill="none" xmlns="http://www.w3.org/2000/svg">
<g clip-path="url(#clip0_116_2)">
<path d="M100 50C100 22.3858 77.6142 0 50 0C22.3858 0 0 22.3858 0 50C0 77.6142 22.3858 100 50 100C77.6142 100 100 77.6142 100 50Z" fill="url(#paint0_linear_116_2)"/>
<mask id="mask0_116_2" style="mask-type:luminance" maskUnits="userSpaceOnUse" x="19" y="20" width="62" height="53">
<path d="M80.2454 20.2721H19.6947V72.4709H80.2454V20.2721Z" fill="white"/>
</mask>
<g mask="url(#mask0_116_2)">
<path d="M54.9004 24.6464L50.4762 21.9302C49.0816 21.074 47.2586 21.5116 46.4047 22.9078L21.2405 64.0476C20.3866 65.4437 20.8249 67.2697 22.2195 68.1259L26.6436 70.8419C28.0385 71.6983 29.8614 71.2606 30.7154 69.8645L55.8795 28.7247C56.7335 27.3285 56.2952 25.5026 54.9004 24.6464Z" fill="white"/>
<path fill-rule="evenodd" clip-rule="evenodd" d="M64.653 41.6776C63.513 39.6995 60.6581 39.6995 59.5181 41.6776L44.4366 67.8481C43.298 69.8233 44.7238 72.2909 47.004 72.2909H51.0638L59.7685 58.0599C60.6224 56.6638 62.4455 56.2261 63.84 57.0824L68.2643 59.7985C69.659 60.6547 70.0971 62.4807 69.2431 63.8767L64.0967 72.2909H77.1674C79.4474 72.2909 80.8731 69.8233 79.7347 67.8481L64.653 41.6776Z" fill="white"/>
</g>
</g>
<defs>
<linearGradient id="paint0_linear_116_2" x1="50" y1="0" x2="50" y2="100" gradientUnits="userSpaceOnUse">
<stop stop-color="#CF0A0A"/>
<stop offset="1" stop-color="#690505"/>
</linearGradient>
<clipPath id="clip0_116_2">
<rect width="100" height="100" fill="white"/>
</clipPath>
</defs>
</svg>
